# xmcd
#
# Track frame offsets:
#  150
#  14583
#  34117
#  47891
#  66604
#  86656
#  102807
#  126208
#  146494
#  163558
#  181258
#
# Disc length: 2712 seconds
#
# Revision: 1
# Processed by: cddbd v1.5.1PL0 Copyright (c) Steve Scherf et al.
# Submitted via: Collectorz.com Music Collector 6.9
#
DISCID=980a960b
DTITLE=TANIA KERNAGHAN - Higher Ground
DYEAR=2005
DGENRE=AUSSIE_General Country - Country
TTITLE0=Yee Ha
TTITLE1=30 Something
TTITLE2=Harley McTaggart
TTITLE3=Here`s To Us
TTITLE4=The Price You Pay
TTITLE5=Twang Factor
TTITLE6=Picking Up the Pieces
TTITLE7=Ride With Me Bareback
TTITLE8=I Will
TTITLE9=Life Don`t Get Much Better Than This
TTITLE10=Higher Ground
EXTD=
EXTT0=
EXTT1=
EXTT2=
EXTT3=
EXTT4=
EXTT5=
EXTT6=
EXTT7=
EXTT8=
EXTT9=
EXTT10=
PLAYORDER=
